<svg width="59" height="56" viewBox="0 0 59 56" fill="none" xmlns="http://www.w3.org/2000/svg">
<g clip-path="url(#clip0_816_803)">
<path d="M31.914 24.0338C37.4547 24.2347 40.0443 27.6685 41.0117 30.9871C41.8927 34.0093 43.7674 36.6627 46.4495 38.3112C48.007 39.2685 49.2813 40.8931 49.2563 43.6479C49.213 48.4356 46.5598 52.8732 40.3425 55.0535C37.4457 56.0694 33.5405 52.0432 28.9996 51.8861C24.4067 51.7273 20.8074 55.6049 17.7823 54.4881C11.398 52.1314 8.61679 47.8048 9.90579 42.1967C10.7293 38.6138 12.7021 36.8721 14.673 36.0483C17.4758 34.8771 19.7726 32.7009 21.0496 29.9447C22.4557 26.9102 25.4672 23.7998 31.914 24.0338Z" fill="white"/>
<path d="M37.9981 19.9168C41.8674 20.4895 45.6424 16.6408 46.4299 11.3205C47.2174 6.00026 44.719 1.22307 40.8497 0.650367C36.9804 0.0776678 33.2054 3.92634 32.4179 9.24661C31.6305 14.5669 34.1288 19.3441 37.9981 19.9168Z" fill="white"/>
<path d="M50.7637 33.4423C54.1054 33.9369 57.3657 30.613 58.0457 26.0183C58.7258 21.4235 56.5682 17.2977 53.2265 16.8031C49.8848 16.3085 46.6245 19.6323 45.9444 24.2271C45.2643 28.8219 47.422 32.9477 50.7637 33.4423Z" fill="white"/>
<path d="M21.8373 20.3665C25.8434 19.9508 28.6276 15.1484 28.056 9.64011C27.4844 4.13181 23.7734 0.00345768 19.7674 0.419167C15.7613 0.834876 12.977 5.63723 13.5486 11.1455C14.1202 16.6538 17.8312 20.7822 21.8373 20.3665Z" fill="white"/>
<path d="M8.23361 33.3621C11.7101 33.0013 14.1262 28.8338 13.6302 24.0537C13.1342 19.2736 9.91382 15.691 6.43733 16.0518C2.96083 16.4125 0.544689 20.58 1.04072 25.3601C1.53675 30.1402 4.75711 33.7228 8.23361 33.3621Z" fill="white"/>
<path d="M30 41.2776L25.5285 45.749C25.3612 45.9163 25.1483 46 24.8897 46C24.6312 46 24.4182 45.9163 24.2509 45.749C24.0836 45.5817 24 45.3688 24 45.1102C24 44.8517 24.0836 44.6388 24.2509 44.4715L28.7224 40L24.2509 35.5285C24.0836 35.3612 24 35.1483 24 34.8897C24 34.6312 24.0836 34.4182 24.2509 34.2509C24.4182 34.0836 24.6312 34 24.8897 34C25.1483 34 25.3612 34.0836 25.5285 34.2509L30 38.7224L34.4715 34.2509C34.6388 34.0836 34.8517 34 35.1102 34C35.3688 34 35.5817 34.0836 35.749 34.2509C35.9163 34.4182 36 34.6312 36 34.8897C36 35.1483 35.9163 35.3612 35.749 35.5285L31.2776 40L35.749 44.4715C35.9163 44.6388 36 44.8517 36 45.1102C36 45.3688 35.9163 45.5817 35.749 45.749C35.5817 45.9163 35.3688 46 35.1102 46C34.8517 46 34.6388 45.9163 34.4715 45.749L30 41.2776Z" fill="#1E1E1E"/>
</g>
<defs>
<clipPath id="clip0_816_803">
<rect width="59" height="56" fill="white"/>
</clipPath>
</defs>
</svg>
