<svg width="453" height="192" viewBox="0 0 453 192" fill="none" xmlns="http://www.w3.org/2000/svg">
<path d="M160.953 31.1471C221.16 66.6264 289.838 123.315 364.663 126.429C396.595 127.758 435.954 97.7872 448.725 70.1286C455.431 55.6051 446.733 33.041 434.814 19.87C423.69 7.57792 393.445 2.64519 376.732 2.07502C343.449 0.939634 328.88 12.7744 304.265 31.9331C286.82 45.5113 274.899 63.3549 261.261 79.7338C241.882 103.008 214.424 167.188 188.764 185.5C147.831 214.711 135.264 89 12.2636 122" stroke="#D7D3CB" stroke-width="2" stroke-linecap="round" stroke-dasharray="6 6"/>
<path d="M2.94429 125.108L3.03593 125.082M2.94429 125.108L7.84198 116.321M2.94429 125.108L11.7306 130.005" stroke="#D7D3CB" stroke-width="3" stroke-linecap="round" stroke-linejoin="round"/>
<ellipse cx="220.931" cy="142.445" rx="38.5" ry="23.7468" transform="rotate(-156.305 220.931 142.445)" fill="#EBEAE8"/>
<path d="M235.828 155.167C233.448 156.443 231.516 155.634 230.295 154.475C229.182 153.42 227.742 152.764 226.209 152.729C225.319 152.708 224.384 152.337 223.719 151.172C222.562 149.148 222.589 146.63 224.669 144.187C225.639 143.048 228.27 143.783 230.218 142.735C232.19 141.675 232.752 139.16 234.299 138.887C237.563 138.312 239.795 139.449 240.629 142.125C241.162 143.834 240.759 145.051 240.132 145.881C239.241 147.062 238.809 148.541 238.948 150.014C239.101 151.636 238.598 153.683 235.828 155.167Z" fill="#D7D3CB"/>
<path d="M234.28 158.393C232.511 159.101 231.868 161.647 232.842 164.078C233.817 166.51 236.04 167.906 237.809 167.197C239.577 166.489 240.22 163.943 239.246 161.512C238.271 159.08 236.048 157.684 234.28 158.393Z" fill="#D7D3CB"/>
<path d="M225.589 155.836C224.062 156.448 223.506 158.646 224.348 160.746C225.189 162.846 227.11 164.052 228.637 163.44C230.164 162.828 230.72 160.629 229.878 158.529C229.036 156.429 227.116 155.223 225.589 155.836Z" fill="#D7D3CB"/>
<path d="M240.968 154.238C239.385 155.396 239.392 158.1 240.985 160.276C242.577 162.453 245.151 163.279 246.734 162.121C248.318 160.963 248.31 158.259 246.718 156.083C245.126 153.906 242.551 153.08 240.968 154.238Z" fill="#D7D3CB"/>
<path d="M243.501 145.431C242.127 146.436 242.133 148.782 243.515 150.671C244.897 152.561 247.131 153.277 248.505 152.272C249.879 151.267 249.872 148.921 248.491 147.032C247.109 145.143 244.875 144.426 243.501 145.431Z" fill="#D7D3CB"/>
<path d="M205.242 132.572C203.16 130.953 203.116 128.908 203.666 127.359C204.167 125.948 204.181 124.403 203.605 123.021C203.271 122.219 203.231 121.237 204.007 120.182C205.355 118.347 207.613 117.373 210.618 118.261C212.018 118.674 212.405 121.314 214.113 122.637C215.84 123.976 218.307 123.481 219.164 124.753C220.971 127.438 220.841 129.881 218.784 131.686C217.47 132.839 216.224 132.962 215.235 132.732C213.828 132.404 212.336 132.605 211.077 133.313C209.691 134.093 207.664 134.455 205.242 132.572Z" fill="#D7D3CB"/>
<path d="M201.749 132.468C200.416 131.171 197.889 131.605 196.105 133.439C194.322 135.272 193.957 137.81 195.29 139.107C196.624 140.404 199.151 139.969 200.934 138.136C202.718 136.303 203.082 133.765 201.749 132.468Z" fill="#D7D3CB"/>
<path d="M200.586 123.699C199.435 122.579 197.252 122.955 195.712 124.538C194.172 126.121 193.857 128.313 195.008 129.433C196.16 130.554 198.342 130.178 199.882 128.595C201.423 127.011 201.738 124.82 200.586 123.699Z" fill="#D7D3CB"/>
<path d="M208.109 136.789C206.448 135.835 204.038 136.914 202.727 139.198C201.415 141.482 201.699 144.107 203.36 145.06C205.021 146.014 207.431 144.936 208.742 142.652C210.054 140.368 209.77 137.743 208.109 136.789Z" fill="#D7D3CB"/>
<path d="M216.972 135.56C215.531 134.732 213.439 135.668 212.301 137.65C211.163 139.632 211.409 141.91 212.851 142.737C214.292 143.565 216.383 142.629 217.521 140.647C218.66 138.665 218.414 136.387 216.972 135.56Z" fill="#D7D3CB"/>
</svg>
