<svg width="269" height="148" viewBox="0 0 269 148" fill="none" xmlns="http://www.w3.org/2000/svg">
<path d="M2 46.2203C2 46.2203 140.254 -35.5966 162.768 23.3484C179.838 68.0394 84.8675 92.8411 109.675 133.73C137.129 178.983 267 84.4952 267 84.4952" stroke="#D7D3CB" stroke-width="2" stroke-linecap="round" stroke-dasharray="6 6"/>
<ellipse cx="146.167" cy="71.4448" rx="38.5" ry="23.7468" transform="rotate(-156.305 146.167 71.4448)" fill="#EBEAE8"/>
<path d="M161.065 84.1671C158.685 85.4425 156.753 84.6335 155.531 83.4749C154.419 82.4198 152.979 81.7637 151.446 81.7285C150.556 81.708 149.621 81.3373 148.956 80.1723C147.799 78.1476 147.826 75.6296 149.906 73.1865C150.875 72.0482 153.506 72.7834 155.455 71.735C157.426 70.6746 157.989 68.16 159.535 67.8873C162.8 67.3118 165.031 68.4493 165.866 71.1248C166.399 72.8342 165.996 74.0511 165.369 74.8813C164.478 76.062 164.046 77.5411 164.185 79.014C164.338 80.6357 163.835 82.6833 161.065 84.1671Z" fill="#D7D3CB"/>
<path d="M159.516 87.3925C157.748 88.1012 157.105 90.6468 158.079 93.0782C159.054 95.5096 161.277 96.906 163.046 96.1973C164.814 95.4886 165.457 92.943 164.483 90.5116C163.508 88.0802 161.285 86.6838 159.516 87.3925Z" fill="#D7D3CB"/>
<path d="M150.826 84.8355C149.299 85.4476 148.743 87.646 149.584 89.7459C150.426 91.8457 152.346 93.0517 153.874 92.4396C155.401 91.8275 155.956 89.6291 155.115 87.5293C154.273 85.4294 152.353 84.2234 150.826 84.8355Z" fill="#D7D3CB"/>
<path d="M166.205 83.2378C164.622 84.3959 164.629 87.0995 166.221 89.2764C167.814 91.4534 170.388 92.2793 171.971 91.1212C173.555 89.963 173.547 87.2595 171.955 85.0825C170.362 82.9056 167.788 82.0797 166.205 83.2378Z" fill="#D7D3CB"/>
<path d="M168.737 74.4311C167.364 75.4361 167.37 77.7822 168.752 79.6714C170.134 81.5605 172.368 82.2772 173.742 81.2722C175.116 80.2672 175.109 77.9211 173.727 76.0319C172.345 74.1428 170.111 73.426 168.737 74.4311Z" fill="#D7D3CB"/>
<path d="M130.479 61.5719C128.397 59.9533 128.353 57.9084 128.903 56.359C129.403 54.9481 129.418 53.403 128.842 52.0211C128.507 51.2186 128.468 50.2374 129.243 49.1816C130.592 47.3466 132.85 46.3726 135.854 47.2607C137.255 47.6744 137.641 50.3139 139.349 51.6374C141.077 52.9761 143.544 52.4813 144.401 53.7534C146.208 56.4383 146.078 58.881 144.021 60.686C142.706 61.8392 141.461 61.9624 140.472 61.7321C139.064 61.4044 137.573 61.6051 136.314 62.3132C134.927 63.0928 132.901 63.4552 130.479 61.5719Z" fill="#D7D3CB"/>
<path d="M126.986 61.4676C125.652 60.1705 123.126 60.6053 121.342 62.4388C119.559 64.2723 119.194 66.8101 120.527 68.1072C121.861 69.4043 124.387 68.9695 126.171 67.136C127.954 65.3025 128.319 62.7647 126.986 61.4676Z" fill="#D7D3CB"/>
<path d="M125.823 52.6993C124.671 51.5791 122.489 51.9546 120.949 53.538C119.409 55.1215 119.094 57.3133 120.245 58.4335C121.397 59.5538 123.579 59.1782 125.119 57.5948C126.66 56.0113 126.975 53.8196 125.823 52.6993Z" fill="#D7D3CB"/>
<path d="M133.346 65.7893C131.685 64.8355 129.275 65.9138 127.964 68.1978C126.652 70.4818 126.936 73.1066 128.597 74.0604C130.258 75.0143 132.668 73.9359 133.979 71.6519C135.291 69.3679 135.007 66.7432 133.346 65.7893Z" fill="#D7D3CB"/>
<path d="M142.209 64.5596C140.767 63.7318 138.676 64.6676 137.538 66.6497C136.4 68.6317 136.646 70.9095 138.087 71.7372C139.529 72.565 141.62 71.6292 142.758 69.6472C143.896 67.6651 143.65 65.3873 142.209 64.5596Z" fill="#D7D3CB"/>
</svg>
